<svg xmlns="http://www.w3.org/2000/svg" width="347" height="371" fill="none" viewBox="0 0 347 371">
  <path fill="#004883" fill-rule="evenodd" d="M171.435 68.458c6.057 3.278 11.565 7.45 16.523 12.514-4.069 5.752-9.347 9.923-15.835 12.514a98.196 98.196 0 0 1-15.835-12.514c5.143-4.2 10.192-8.372 15.147-12.514Z" clip-rule="evenodd" opacity=".937"/>
  <path fill="#0D8BF1" fill-rule="evenodd" d="M138.387 258.375c-.101 2.248.818 3.72 2.754 4.417 0 .982.458 1.472 1.377 1.472v1.472l4.131 4.417c0 .982.458 1.472 1.377 1.472a101.884 101.884 0 0 1 12.393 16.194c-52.319-39.722-78.94-94.194-79.865-163.416 20.762-8.523 40.728-18.829 59.898-30.917a98.506 98.506 0 0 1 15.836 11.778 302.611 302.611 0 0 1-57.145 32.389c-.431 45.49 12.65 85.73 39.244 120.722Z" clip-rule="evenodd" opacity=".89"/>
  <path fill="#004883" fill-rule="evenodd" d="M185.204 287.819c5.059-6.878 10.107-13.749 15.147-20.611.919 0 1.377-.49 1.377-1.472.919 0 1.377-.49 1.377-1.472 1.154-.504 1.614-1.484 1.377-2.945.919 0 1.377-.49 1.377-1.472 27.405-35.633 40.716-76.61 39.933-122.93a269.567 269.567 0 0 1-56.457-31.653c4.321-5.008 9.369-8.934 15.147-11.778a82480.725 82480.725 0 0 0 37.179 21.347c7.541 4.037 15.345 7.227 23.408 9.57-1.666 68.844-28.287 123.316-79.865 163.416Z" clip-rule="evenodd" opacity=".947"/>
  <path fill="#0D8BF1" fill-rule="evenodd" d="M172.812 106.736c20.27 14.026 41.842 25.313 64.718 33.861-.82 42.849-11.376 82.599-31.671 119.25-.918 0-1.377.49-1.377 1.472-1.154.504-1.614 1.484-1.377 2.945-.918 0-1.377.49-1.377 1.472-.918 0-1.377.49-1.377 1.472-5.04 6.862-10.088 13.733-15.147 20.611a82.132 82.132 0 0 1-12.392 13.25V106.736Z" clip-rule="evenodd" opacity=".979"/>
  <path fill="#004883" fill-rule="evenodd" d="M172.812 106.736v194.333a82.094 82.094 0 0 1-12.393-13.25 101.884 101.884 0 0 0-12.393-16.194c-.919 0-1.377-.49-1.377-1.472l-4.131-4.417c1.835-.49 1.835-.982 0-1.472-.919 0-1.377-.49-1.377-1.472.1-2.248-.818-3.721-2.754-4.417-19.874-36.281-29.972-75.54-30.294-117.778 22.876-8.548 44.448-19.835 64.719-33.861Z" clip-rule="evenodd" opacity=".991"/>
</svg>
